# xmcd
#
# Track frame offsets: 
#        150
#        20163
#        36329
#        53657
#        71620
#        90906
#        107427
#        124351
#        136152
#        153120
#
# Disc length: 2234 seconds
#
# Revision: 0
# Processed by: cddbd v1.5.1PL2 Copyright (c) Steve Scherf et al.
# Submitted via: ExactAudioCopy v0.95a5
#
DISCID=7b08b80a
DTITLE=Ottomatic Slim  - Ottomatic Slim
DYEAR=2005
DGENRE=Blues
TTITLE0=Phi Beta Momma
TTITLE1=I Wanna Be Loved
TTITLE2=Blowin' The Family Jewels
TTITLE3=I Got Hip
TTITLE4=Makin' Time
TTITLE5=Playin' On Me
TTITLE6=Brick
TTITLE7=Momma And Poppa
TTITLE8=Talkin' Ain't Doin'
TTITLE9=High School Hero
EXTD=
EXTT0=
EXTT1=
EXTT2=
EXTT3=
EXTT4=
EXTT5=
EXTT6=
EXTT7=
EXTT8=
EXTT9=
PLAYORDER=
